<svg width="1095" height="1080" viewBox="0 0 1095 1080" fill="none" xmlns="http://www.w3.org/2000/svg">
<rect x="163.167" y="852" width="181" height="181" transform="rotate(47.8382 163.167 852)" fill="#ACFFC8" fill-opacity="0.43"/>
<rect x="241.805" y="699" width="110.902" height="114.408" transform="rotate(47.8382 241.805 699)" fill="#ACFFC8" fill-opacity="0.43"/>
<rect x="211.923" y="560" width="92.5342" height="91.5864" transform="rotate(58.3007 211.923 560)" fill="#ACFFC8" fill-opacity="0.43"/>
<path d="M151.116 166.858L160.587 32.3012L280.299 128.04L151.116 166.858Z" fill="#ACFFC8" fill-opacity="0.43"/>
<path d="M162.345 257.547L38.3757 247.559L116.159 142.07L162.345 257.547Z" fill="#ACFFC8" fill-opacity="0.43"/>
<path d="M270.055 65.5331L349.152 34.5379L333.47 122.064L270.055 65.5331Z" fill="#ACFFC8" fill-opacity="0.43"/>
<path d="M112.064 119.693L-35.8387 48.5875L111.275 -44.4122L112.064 119.693Z" fill="#ACFFC8" fill-opacity="0.43"/>
<circle cx="855" cy="42" r="80" fill="#ACFFC8" fill-opacity="0.43"/>
<circle cx="1015" cy="155" r="80" fill="#ACFFC8" fill-opacity="0.43"/>
<ellipse cx="587.5" cy="49.5" rx="38.5" ry="35.5" fill="#ACFFC8" fill-opacity="0.43"/>
<ellipse cx="706" cy="103.5" rx="51" ry="51.5" fill="#ACFFC8" fill-opacity="0.43"/>
</svg>
