<svg width="320" height="431" viewBox="0 0 320 431" fill="none" xmlns="http://www.w3.org/2000/svg">
<rect x="11.7175" y="62.9465" width="32.0473" height="33.0493" transform="rotate(14.7184 11.7175 62.9465)" fill="#ACFFC8" fill-opacity="0.66"/>
<rect x="40.813" y="-24" width="53" height="55" transform="rotate(46.3751 40.813 -24)" fill="#ACFFC8" fill-opacity="0.66"/>
<rect x="85.5338" y="46.9328" width="36.2559" height="40.6807" transform="rotate(63.9271 85.5338 46.9328)" fill="#ACFFC8" fill-opacity="0.66"/>
<ellipse cx="298" cy="14" rx="25" ry="21" fill="#ACFFC8" fill-opacity="0.66"/>
<ellipse cx="288" cy="58" rx="18" ry="15" fill="#ACFFC8" fill-opacity="0.66"/>
<path d="M300.907 229.788L357.866 243.773L300.87 288.439L300.907 229.788Z" fill="#ACFFC8" fill-opacity="0.66"/>
<g filter="url(#filter0_d_416_25)">
<rect x="90" y="318" width="12" height="12" rx="4" fill="white"/>
<rect x="90.5" y="318.5" width="11" height="11" rx="3.5" stroke="#00E917"/>
</g>
<path d="M270.914 203.152L297.204 169.861L310.91 217.284L270.914 203.152Z" fill="#ACFFC8" fill-opacity="0.66"/>
<defs>
<filter id="filter0_d_416_25" x="86" y="318" width="20" height="20" filterUnits="userSpaceOnUse" color-interpolation-filters="sRGB">
<feFlood flood-opacity="0" result="BackgroundImageFix"/>
<feColorMatrix in="SourceAlpha" type="matrix" values="0 0 0 0 0 0 0 0 0 0 0 0 0 0 0 0 0 0 127 0" result="hardAlpha"/>
<feOffset dy="4"/>
<feGaussianBlur stdDeviation="2"/>
<feComposite in2="hardAlpha" operator="out"/>
<feColorMatrix type="matrix" values="0 0 0 0 0 0 0 0 0 0 0 0 0 0 0 0 0 0 0.25 0"/>
<feBlend mode="normal" in2="BackgroundImageFix" result="effect1_dropShadow_416_25"/>
<feBlend mode="normal" in="SourceGraphic" in2="effect1_dropShadow_416_25" result="shape"/>
</filter>
</defs>
</svg>
